<svg id="bg" xmlns="http://www.w3.org/2000/svg" viewBox="0 0 347.4 279.97"><path d="M50.86,49.3c0-13.78,0-26.76,0-39.74C50.88,2.24,53.11,0,60.35,0H337.77c7.4,0,9.61,2.11,9.62,9.42q0,111,0,221.94c0,7.55-2.21,9.61-9.95,9.62h-40.9c0,9.75,0,19,0,28.31,0,8.71-1.92,10.68-10.41,10.68H10.21C2,280,0,278,0,269.59q0-105,0-209.94c0-8.26,2.08-10.33,10.36-10.34C23.66,49.29,37,49.3,50.86,49.3ZM282.27,265.82V63.44H14V265.82Zm14.27-39h36.82V14.22H65V49.3H285.63c8.93,0,10.91,2,10.91,10.79V226.85Z"/><path d="M141.51,171.73H117c-9.32,0-18.65.08-28,0-5-.07-8.13-2.94-8.13-7S84.19,158,89.09,158c15.48,0,31,0,46.45,0h6V152.1q0-23,0-46c0-5.5,2.5-8.66,6.68-8.71s6.86,3.1,6.89,8.57c.06,15.32,0,30.64,0,46v6h18.81q16.49,0,33,0c5.6,0,8.65,2.36,8.76,6.63s-3.18,7.12-8.93,7.14c-16,0-32,0-47.95,0-1,0-2,.14-3.66.27v48.84c0,1.5,0,3-.09,4.5-.33,4.1-2.58,6.41-6.7,6.59-4,.17-6.72-2.53-6.75-7-.12-15-.06-30-.06-45C141.5,177.53,141.51,175.06,141.51,171.73Z"/></svg>