<svg id="Layer_1" data-name="Layer 1" xmlns="http://www.w3.org/2000/svg" viewBox="0 0 320 142.01"><defs><style>.cls-1{fill:#f9eb20;}.cls-2{fill:#010101;}</style></defs><rect class="cls-1" x="5.25" y="14.38" width="80.44" height="89.87"/><path class="cls-2" d="M72.05,104.25,62.47,81.34H28l-9.58,22.91H5.26L43,14.42h4.86l37.77,89.83ZM49.14,49c-.65-1.48-1.3-3.2-1.94-5.14S45.94,40,45.39,38.16h-.28a58.1,58.1,0,0,1-1.74,5.69c-.69,1.94-1.36,3.66-2,5.14L32.62,70.65H57.89Z"/><path class="cls-2" d="M151,51.49a23.49,23.49,0,0,1-6.25,7.77,26.5,26.5,0,0,1-8.54,4.58,30.46,30.46,0,0,1-9.44,1.53H113.42v38.88H100.09V15.67h26.66a30.45,30.45,0,0,1,9.44,1.52,26.72,26.72,0,0,1,8.54,4.59,23.29,23.29,0,0,1,8.68,18.74A23.67,23.67,0,0,1,151,51.49ZM138.55,34.55a11.81,11.81,0,0,0-3.4-4.16,14.81,14.81,0,0,0-4.93-2.5,19.55,19.55,0,0,0-5.69-.84h-11V54h11a21.33,21.33,0,0,0,5.69-.77,13.79,13.79,0,0,0,4.93-2.43,11.79,11.79,0,0,0,3.4-4.23,13.57,13.57,0,0,0,1.25-6A13.15,13.15,0,0,0,138.55,34.55Z"/><path class="cls-2" d="M216,104.25l-9.58-22.91H172l-9.58,22.91H149.24L187,14.42h4.86l37.77,89.83ZM193.12,49c-.65-1.48-1.3-3.2-1.94-5.14s-1.25-3.84-1.81-5.69h-.28q-.69,2.78-1.73,5.69c-.7,1.94-1.37,3.66-2,5.14L176.6,70.65h25.27Z"/><path class="cls-2" d="M300.24,103.69a67.13,67.13,0,0,1-18,2.23,54.12,54.12,0,0,1-17.71-3A48.55,48.55,0,0,1,249,94.18a43.65,43.65,0,0,1-11.11-14.37,44.79,44.79,0,0,1-4.23-20A43.84,43.84,0,0,1,238,39.69,45.13,45.13,0,0,1,249.3,25.32a47.89,47.89,0,0,1,15.36-8.68,51.25,51.25,0,0,1,16.81-2.92,63.82,63.82,0,0,1,16.47,1.95A41.6,41.6,0,0,1,310.1,20.8l-2.5,11.67a43.62,43.62,0,0,0-11.19-5.14A45.63,45.63,0,0,0,283,25.38a40.14,40.14,0,0,0-12.93,2.16A34.72,34.72,0,0,0,258.6,34a32.25,32.25,0,0,0-8.2,10.77A34.43,34.43,0,0,0,247.27,60a34.75,34.75,0,0,0,3.06,15.12,32.17,32.17,0,0,0,8.07,10.7,33,33,0,0,0,11.49,6.39,43,43,0,0,0,13.29,2.08q12.26,0,18.79-4.58V71.2H281.56v-11h33.05v36.1A39.55,39.55,0,0,1,300.24,103.69Z"/><rect class="cls-2" x="79.82" y="55.38" width="11.41" height="11.41"/><path class="cls-2" d="M9.24,124.44,8,128.08H5.23l4.69-12.89h3.4l4.76,12.89H15.21l-1.32-3.64Zm4.2-1.78-1.15-3.18c-.28-.8-.52-1.67-.74-2.42H11.5c-.21.75-.44,1.65-.69,2.41l-1.13,3.19Z"/><path class="cls-2" d="M22.79,115.19v12.89H20.11V115.19Z"/><path class="cls-2" d="M25.84,115.37a26.44,26.44,0,0,1,4.05-.28c2.1,0,3.53.31,4.51,1a3.08,3.08,0,0,1,1.27,2.59A3.5,3.5,0,0,1,33,121.94v0a3.32,3.32,0,0,1,2,2.5,26.58,26.58,0,0,0,1.16,3.59H33.46a15,15,0,0,1-1-3c-.42-1.68-1.11-2.23-2.63-2.26H28.49v5.3H25.84Zm2.65,5.69h1.58c1.82,0,2.93-.85,2.93-2.13s-1.12-2.06-2.85-2.06a7.88,7.88,0,0,0-1.66.12Z"/><path class="cls-2" d="M47.18,115.36a26.83,26.83,0,0,1,4.09-.27,7.25,7.25,0,0,1,4.31,1A3.48,3.48,0,0,1,57,119a3.7,3.7,0,0,1-1.25,2.92,7,7,0,0,1-4.62,1.38,7.21,7.21,0,0,1-1.31-.09v4.87H47.18Zm2.65,6a5.92,5.92,0,0,0,1.31.11c2,0,3.21-.88,3.21-2.39s-1.12-2.18-3-2.18a9.31,9.31,0,0,0-1.55.11Z"/><path class="cls-2" d="M72.3,121.51c0,4.31-3,6.78-7,6.78s-6.75-2.78-6.75-6.56c0-4,2.84-6.75,7-6.75S72.3,117.82,72.3,121.51Zm-10.93.18c0,2.63,1.51,4.72,4.07,4.72s4-2.12,4-4.82c0-2.43-1.37-4.73-4-4.73S61.37,119,61.37,121.69Z"/><path class="cls-2" d="M74.59,115.19h2.68V126.1h6v2H74.59Z"/><path class="cls-2" d="M85.3,115.19H88V126.1h6v2H85.3Z"/><path class="cls-2" d="M97.94,115.19v7.51c0,2.52,1.18,3.7,3,3.7s3.08-1.16,3.08-3.7v-7.51h2.67v7.36c0,4-2.32,5.74-5.85,5.74s-5.57-1.67-5.57-5.72v-7.38Z"/><path class="cls-2" d="M112.55,117.17h-4.18v-2h11.07v2h-4.22v10.91h-2.67Z"/><path class="cls-2" d="M123.81,115.19v12.89h-2.68V115.19Z"/><path class="cls-2" d="M139.85,121.51c0,4.31-3,6.78-7,6.78s-6.75-2.78-6.75-6.56c0-4,2.84-6.75,7-6.75S139.85,117.82,139.85,121.51Zm-10.93.18c0,2.63,1.51,4.72,4.07,4.72s4-2.12,4-4.82c0-2.43-1.37-4.73-4-4.73S128.92,119,128.92,121.69Z"/><path class="cls-2" d="M142.15,128.08V115.19h3l3.78,5.53a35,35,0,0,1,2.48,4.32h.06a47.25,47.25,0,0,1-.24-5.34v-4.5h2.47v12.89H151l-3.82-5.67a44.2,44.2,0,0,1-2.62-4.45l-.07,0c.11,1.67.14,3.37.14,5.49v4.61Z"/><path class="cls-2" d="M168.74,124.44l-1.25,3.64h-2.76l4.69-12.89h3.4l4.75,12.89h-2.86l-1.33-3.64Zm4.2-1.78-1.15-3.18c-.28-.8-.52-1.67-.74-2.42H171c-.21.75-.44,1.65-.7,2.41l-1.13,3.19Z"/><path class="cls-2" d="M189.65,127.7a10.51,10.51,0,0,1-3.79.58c-4.64,0-7.47-2.57-7.47-6.49,0-4.24,3.36-6.8,7.83-6.8a9,9,0,0,1,3.54.57l-.58,1.88a7.57,7.57,0,0,0-2.85-.51c-3,0-5.12,1.64-5.12,4.74,0,2.84,1.87,4.64,5.09,4.64a8.6,8.6,0,0,0,2.91-.47Z"/><path class="cls-2" d="M195.16,117.17H191v-2h11.07v2h-4.22v10.91h-2.67Z"/><path class="cls-2" d="M206.42,115.19v12.89h-2.67V115.19Z"/><path class="cls-2" d="M222.46,121.51c0,4.31-3,6.78-7,6.78s-6.74-2.78-6.74-6.56c0-4,2.83-6.75,7-6.75S222.46,117.82,222.46,121.51Zm-10.92.18c0,2.63,1.51,4.72,4.06,4.72s4-2.12,4-4.82c0-2.43-1.37-4.73-4-4.73S211.54,119,211.54,121.69Z"/><path class="cls-2" d="M224.76,128.08V115.19h3.05l3.78,5.53a36.43,36.43,0,0,1,2.49,4.32h0a47.25,47.25,0,0,1-.24-5.34v-4.5h2.47v12.89h-2.77l-3.81-5.67a40.72,40.72,0,0,1-2.62-4.45l-.07,0c.1,1.67.14,3.37.14,5.49v4.61Z"/><path class="cls-2" d="M260.15,127.49a16.56,16.56,0,0,1-4.71.72,8.53,8.53,0,0,1-5.73-1.72,6,6,0,0,1-2.05-4.73c0-4.09,3.31-6.7,8.15-6.7a10.8,10.8,0,0,1,3.88.61l-.59,1.89a8.75,8.75,0,0,0-3.33-.55c-3.11,0-5.31,1.63-5.31,4.63s2,4.66,5.08,4.66a5.78,5.78,0,0,0,2-.26v-3.22H255V121h5.17Z"/><path class="cls-2" d="M262.88,115.37a26.25,26.25,0,0,1,4.05-.28,7.48,7.48,0,0,1,4.51,1,3.1,3.1,0,0,1,1.26,2.59,3.49,3.49,0,0,1-2.66,3.22v0a3.34,3.34,0,0,1,2,2.5,25.54,25.54,0,0,0,1.15,3.59h-2.74a15,15,0,0,1-1-3c-.42-1.68-1.11-2.23-2.63-2.26h-1.34v5.3h-2.65Zm2.65,5.69h1.58c1.81,0,2.92-.85,2.92-2.13s-1.12-2.06-2.84-2.06a7.74,7.74,0,0,0-1.66.12Z"/><path class="cls-2" d="M288.19,121.51c0,4.31-3,6.78-7,6.78s-6.75-2.78-6.75-6.56c0-4,2.84-6.75,7-6.75S288.19,117.82,288.19,121.51Zm-10.93.18c0,2.63,1.51,4.72,4.07,4.72s4-2.12,4-4.82c0-2.43-1.37-4.73-4-4.73S277.26,119,277.26,121.69Z"/><path class="cls-2" d="M293.14,115.19v7.51c0,2.52,1.19,3.7,3,3.7s3.08-1.16,3.08-3.7v-7.51h2.67v7.36c0,4-2.32,5.74-5.85,5.74-3.37,0-5.57-1.67-5.57-5.72v-7.38Z"/><path class="cls-2" d="M304.94,115.36a26.93,26.93,0,0,1,4.09-.27,7.23,7.23,0,0,1,4.31,1,3.48,3.48,0,0,1,1.43,2.86,3.67,3.67,0,0,1-1.25,2.92,7,7,0,0,1-4.62,1.38,7.21,7.21,0,0,1-1.31-.09v4.87h-2.65Zm2.65,6a5.92,5.92,0,0,0,1.31.11c2,0,3.22-.88,3.22-2.39s-1.13-2.18-3-2.18a9.41,9.41,0,0,0-1.55.11Z"/></svg>